<svg width="183" height="147" viewBox="0 0 183 147" fill="none" xmlns="http://www.w3.org/2000/svg">
<path d="M41.6532 108.395C37.6792 108.396 33.7794 107.539 29.9828 105.827C25.6043 103.852 21.3987 101.426 17.4834 98.6177C17.3122 98.4949 17.1509 98.3646 16.9984 98.2267L12.7866 101.604C12.4945 101.838 12.0856 101.865 11.7655 101.669C11.6197 101.58 8.15646 99.4475 5.22441 96.0379C2.28214 92.6167 0.992591 89.2568 0.939248 89.1158C0.822784 88.8082 0.886795 88.4611 1.10505 88.2155L3.69349 85.2993C3.75706 85.2279 3.82907 85.1694 3.90641 85.1237C2.58308 82.5576 0.806782 77.7832 0.16623 69.9219C-0.400533 62.9604 0.483616 57.252 2.79378 52.9549C2.91736 52.7249 3.10006 52.3485 3.29787 51.9421C3.63659 51.2461 3.98643 50.5258 4.2278 50.1326C4.46562 49.7452 4.72433 49.2989 5.01149 48.8042C7.23942 44.9633 11.3859 37.8147 20.8599 32.3669C28.8893 27.7503 32.8846 27.2702 36.4092 26.8465C38.506 26.5947 40.3161 26.3766 42.753 25.2897C48.9531 22.5255 50.1915 20.2635 50.2035 20.2409C50.3218 20.0157 50.5351 19.8437 50.7827 19.7826C51.029 19.7205 51.2957 19.7608 51.5055 19.9053C52.155 20.353 55.3973 22.7006 55.4324 24.9692C55.4498 26.069 55.067 26.8216 54.7874 27.3704C54.5007 27.9338 54.5109 27.9471 54.6318 28.108C54.7616 28.28 54.9981 28.3749 55.3733 28.5154C56.2686 28.8509 57.6212 29.3571 57.6839 31.9618C57.7341 34.0363 56.6357 35.1945 55.7418 36.0345C57.5088 36.9131 62.0398 39.3103 65.6337 42.4504C67.9554 44.4788 69.7762 46.8502 70.8955 48.4815C71.7489 49.7262 72.2633 50.5471 72.5571 51.1092C73.7022 50.4908 74.4805 50.2253 75.0855 50.0187C75.7954 49.7767 76.1866 49.6428 76.8009 49.075C78.8444 47.1862 82.1831 48.6707 82.5868 48.9491C82.8148 49.106 82.9628 49.3534 82.9931 49.6269C83.0495 50.1349 82.7584 50.4491 82.2294 51.0196C81.3497 51.9682 79.52 53.9421 78.6412 57.2914C77.854 60.2928 78.0184 63.7808 78.1634 66.8576C78.2549 68.8004 78.3412 70.6351 78.1656 72.0855C77.5917 76.8266 76.3973 86.6933 69.0952 94.8038C65.6035 98.6824 61.2214 102.07 56.6886 104.445C56.6095 104.505 56.5215 104.55 56.4286 104.581C55.3102 105.156 54.1842 105.67 53.0609 106.113C49.2091 107.635 45.3978 108.395 41.6532 108.395ZM36.7711 106.124C43.4135 107.364 49.8808 105.878 55.5178 103.038C55.9085 102.245 57.0394 99.592 56.9549 95.58C56.8562 90.8521 56.0343 89.3587 56.0259 89.3445C55.7871 88.9256 55.9227 88.3844 56.3375 88.1371C56.7522 87.8893 57.2847 88.0098 57.5417 88.4176C57.6519 88.5927 58.6227 90.2789 58.733 95.5427C58.7872 98.154 58.3769 100.242 57.9319 101.712C61.7579 99.432 65.1158 96.5698 67.7718 93.6203C69.1503 92.0892 70.2998 90.4877 71.2613 88.8676C70.9359 88.0746 70.2034 85.7833 70.6012 81.9362C71.0644 77.4556 71.2346 75.0124 71.2364 74.9884C71.2698 74.4999 71.7014 74.136 72.1841 74.1648C72.6744 74.1981 73.0443 74.6214 73.01 75.1099C73.0083 75.1347 72.8362 77.6032 72.3699 82.1184C72.1663 84.0918 72.2886 85.5896 72.4753 86.6211C75.3176 80.8254 76.0092 75.109 76.4008 71.8736C76.5582 70.5708 76.4755 68.8079 76.3879 66.9418C76.2368 63.7374 76.0657 60.1062 76.9218 56.8437C77.8371 53.3556 79.64 51.2178 80.6811 50.0803C79.853 49.8653 78.6848 49.7514 78.01 50.376C77.1187 51.1996 76.4435 51.4301 75.6616 51.6969C74.9224 51.9487 74.0031 52.2625 72.4033 53.2488C70.9266 54.1593 70.8915 55.3526 70.9564 57.2249C70.9999 58.4634 71.0484 59.8672 70.3229 61.1079C69.0543 63.2777 67.5096 62.7791 66.4881 62.4515C65.9351 62.2733 65.4541 62.1181 64.9527 62.2343C64.9056 62.6173 65.2341 63.6909 65.4781 64.4887C66.0391 66.3225 66.8068 68.8336 66.3912 71.3683C66.1587 72.784 65.7328 73.6502 65.0505 74.0939C64.2543 74.6125 63.4067 74.3958 62.7261 74.2202C61.8313 73.9906 61.657 74.0115 61.4001 74.3834C60.4164 75.8027 60.1417 77.0984 59.7612 78.8914C59.6007 79.6472 59.4184 80.504 59.1597 81.4677C58.7556 82.973 57.98 84.0257 56.8535 84.5967C55.1422 85.4646 52.6773 85.2257 49.0985 83.8449C46.082 82.6813 43.3362 82.4136 41.5643 82.3945C41.555 82.3945 41.5456 82.3945 41.5363 82.3945C40.7637 82.3945 40.0663 82.7545 39.299 83.3165C34.1666 88.2217 28.5146 90.9895 22.9447 91.2408C21.8685 91.2891 20.735 91.2492 19.5873 91.1437C18.336 91.4571 17.5816 92.4217 17.2744 93.3432C16.8917 94.4904 17.018 96.1004 18.5218 97.1784C22.342 99.9187 26.4444 102.285 30.7158 104.211C32.0067 104.793 33.2989 105.259 34.5862 105.617C35.1539 105.19 37.7806 103.112 40.2032 99.5277C40.016 99.1048 38.9221 96.5458 38.7896 94.2794C38.7238 93.1491 38.6856 91.6956 38.8759 91.1898L40.5401 91.814C40.5401 91.814 40.5512 91.794 40.5637 91.7408C40.5588 91.7612 40.453 92.2626 40.565 94.1761C40.6344 95.3659 41.0353 96.705 41.3709 97.6443C44.0736 92.9727 44.471 91.3082 44.4746 91.2913C44.5817 90.8179 45.0533 90.5147 45.529 90.6158C46.0051 90.7173 46.3118 91.1779 46.2149 91.6535C46.1758 91.8463 45.7446 93.6868 42.6903 98.9098C40.6188 102.452 38.2109 104.864 36.7711 106.124ZM2.80756 88.9731C3.25964 89.9859 4.47273 92.4399 6.57486 94.884C8.67522 97.3269 11.1276 99.1084 12.1767 99.818L15.5039 97.15C14.2855 96.2174 12.3301 94.701 11.0823 93.6314C7.78307 90.8064 5.40667 87.5542 5.30709 87.4167C5.2662 87.3605 5.2333 87.3011 5.20708 87.2403C5.10439 87.1047 4.97504 86.9256 4.82524 86.7L2.80756 88.9731ZM8.72278 88.7909C9.65983 89.8503 10.8743 91.1167 12.2403 92.2865C13.076 93.0024 14.2655 93.9456 15.3186 94.7648C15.2803 94.1141 15.3666 93.4443 15.5875 92.7825C15.8475 92.0023 16.2658 91.325 16.8006 90.7785C13.7374 90.2665 10.7938 89.4438 8.72278 88.7909ZM6.66555 86.2204C7.88308 86.6645 13.9352 88.7922 19.5037 89.3516C19.8509 89.2882 20.2123 89.2598 20.5799 89.2661C22.2975 89.2971 23.94 89.1756 25.4572 88.8995C31.0319 87.8835 34.6645 84.8405 36.8346 83.0222C37.2169 82.7013 37.5601 82.4149 37.8655 82.176C37.9619 82.1006 38.0597 82.0257 38.1584 81.9517C39.6933 80.4739 41.1838 78.7916 42.6107 76.9162C48.2517 69.5017 47.9009 65.956 47.7325 64.2525L47.7085 64.0047C47.6689 63.5641 47.4208 62.7658 47.1581 61.9213C46.4754 59.7254 45.5405 56.7183 46.4238 54.4993C47.239 52.4514 49.3154 52.267 51.3228 52.0888C52.7626 51.9611 54.2518 51.8286 55.4124 51.0613C57.8995 49.4163 56.646 45.184 55.5138 42.9433C55.0661 42.0576 54.5145 41.3914 54.0277 40.8041C53.1934 39.7974 52.331 38.7562 52.7257 37.1861C52.9778 36.183 53.6748 35.535 54.3482 34.9082C55.2026 34.1129 55.9409 33.4259 55.9067 32.0052C55.8725 30.597 55.4729 30.4476 54.7483 30.1758C54.2624 29.9941 53.6579 29.7676 53.2107 29.1736C52.4141 28.1169 52.8693 27.2224 53.2014 26.569C53.4396 26.1009 53.6646 25.6585 53.6543 24.9976C53.6419 24.1674 52.3537 22.8216 51.1935 21.8876C50.2902 22.9426 48.1783 24.8136 43.4793 26.909C40.7966 28.1049 38.7692 28.3487 36.6226 28.6067C33.2665 29.0101 29.4627 29.4671 21.7481 33.9028C12.6861 39.1134 8.84547 45.735 6.55086 49.692C6.2557 50.2005 5.98899 50.6597 5.74495 51.0582C5.54891 51.3778 5.18796 52.1198 4.89858 52.7156C4.68788 53.1482 4.49318 53.548 4.3616 53.7931C2.37193 57.4926 1.5269 62.3837 1.8434 68.3478C3.17429 63.8792 5.89208 57.2351 11.2717 51.0608C20.2896 40.7101 37.8103 35.062 38.5518 34.8266C39.0212 34.6794 39.52 34.9365 39.6684 35.4029C39.8173 35.8692 39.5591 36.3678 39.0914 36.5163C38.923 36.57 22.9963 41.7061 13.9614 50.7802C15.7124 51.3552 19.7784 52.5072 22.6056 51.8623C23.7684 51.5976 24.7735 51.3463 25.6599 51.1242C27.854 50.5746 29.4392 50.1774 31.3048 50.1052C31.3164 50.1043 31.3288 50.1043 31.3399 50.1043C31.8151 50.1043 32.2094 50.4788 32.2276 50.9562C32.2467 51.4456 31.8649 51.8578 31.3741 51.8765C29.773 51.939 28.3279 52.2847 26.3898 52.7692L28.122 54.427C28.4763 54.7666 28.4879 55.3273 28.1483 55.6806C27.8073 56.0339 27.2455 56.0454 26.8912 55.7067L24.3499 53.2745C23.9253 53.3769 23.4764 53.4833 23.0003 53.5915C19.1321 54.47 13.6845 52.5852 12.635 52.1996C12.6279 52.2076 12.6208 52.216 12.6137 52.224C9.72695 55.5374 7.63371 59.0241 6.12501 62.2064C8.49519 60.9204 12.3652 59.2608 14.8283 60.4869C16.4641 61.3008 17.7087 62.7653 18.9134 64.1816C20.2296 65.7299 21.4729 67.1922 23.1021 67.7419C23.5671 67.8988 23.8164 68.4019 23.6591 68.866C23.5017 69.3297 22.9981 69.5788 22.5318 69.4214C20.4359 68.714 18.9725 66.9928 17.5572 65.3283C17.0433 64.7237 16.5419 64.1341 16.0258 63.6089C15.6528 64.7605 15.031 66.9391 15.011 68.718C14.9825 71.2508 16.2507 74.8373 16.2632 74.8732C16.4276 75.3346 16.1863 75.8417 15.724 76.0057C15.2617 76.1706 14.7527 75.9295 14.5882 75.468C14.5313 75.3098 13.2004 71.55 13.2324 68.6985C13.2604 66.1949 14.2802 63.1749 14.5655 62.3779C14.3922 62.2658 14.2157 62.1642 14.0348 62.0738C11.8157 60.971 6.72022 63.8008 5.10973 64.8797C5.04883 64.9205 4.98482 64.9528 4.91858 64.9768C2.91069 70.0225 2.42261 73.7641 2.41461 73.8297C2.41327 73.8381 2.41239 73.8461 2.41105 73.8545C3.63704 81.879 6.08856 85.4686 6.66555 86.2204ZM41.8724 80.6259C43.7936 80.6724 46.6345 80.9929 49.7399 82.1906C52.7302 83.3445 54.8532 83.6215 56.0481 83.0151C56.7144 82.6778 57.17 82.0213 57.4425 81.0084C57.6888 80.0909 57.8582 79.2943 58.0213 78.5244C58.4129 76.6804 58.7508 75.0877 59.9372 73.3758C60.9387 71.9299 62.3354 72.2889 63.1693 72.5035C63.5302 72.5957 63.9387 72.7012 64.0788 72.609C64.1361 72.5717 64.4326 72.3226 64.6366 71.0815C64.9856 68.9551 64.3157 66.7654 63.7774 65.006C63.2782 63.3735 62.9172 62.1939 63.4098 61.3132C63.5618 61.0419 63.8658 60.6855 64.4539 60.5312C65.4768 60.2631 66.3405 60.5406 67.0348 60.764C68.007 61.076 68.239 61.1523 68.7876 60.2143C69.2539 59.4164 69.2183 58.3818 69.1801 57.2865C69.1214 55.6008 69.0489 53.5298 71.0235 52.044C70.3772 50.8773 68.027 46.8999 64.4619 43.7842C60.7102 40.5058 55.7298 37.9995 54.5212 37.4135C54.4918 37.48 54.4678 37.5478 54.4505 37.617C54.2882 38.2628 54.5492 38.6485 55.3986 39.6742C55.9183 40.301 56.5646 41.0816 57.102 42.1445C58.8361 45.5767 59.6918 50.3583 56.3957 52.5387C54.859 53.5547 53.0645 53.7138 51.4811 53.8548C49.5692 54.0245 48.469 54.1686 48.077 55.1535C47.4249 56.791 48.2525 59.4528 48.8566 61.3965C49.1607 62.3739 49.423 63.2183 49.4799 63.8456L49.5021 64.0778C49.6932 66.0069 50.0897 70.0198 44.0278 77.988C43.3242 78.9118 42.6049 79.7917 41.8724 80.6259Z" fill="#DFE2EB"/>
<path d="M183 42.011C183 45.9689 182.14 49.853 180.421 53.6343C178.438 57.9951 176.003 62.1838 173.183 66.0833C173.06 66.2537 172.929 66.4144 172.79 66.5663L176.181 70.7611C176.417 71.052 176.443 71.4593 176.246 71.7781C176.157 71.9233 174.016 75.3725 170.593 78.2928C167.158 81.2232 163.784 82.5075 163.642 82.5606C163.334 82.6766 162.985 82.6129 162.738 82.3955L159.81 79.8175C159.739 79.7542 159.68 79.6825 159.634 79.6054C157.058 80.9234 152.264 82.6926 144.371 83.3305C137.381 83.895 131.649 83.0144 127.335 80.7136C127.104 80.5905 126.726 80.4085 126.318 80.2115C125.619 79.8742 124.896 79.5258 124.501 79.2854C124.112 79.0485 123.664 78.7908 123.167 78.5048C119.311 76.2859 112.133 72.1561 106.664 62.7203C102.028 54.7234 101.546 50.7442 101.121 47.2338C100.868 45.1455 100.649 43.3427 99.5577 40.9157C96.7823 34.7405 94.5112 33.5071 94.4885 33.4952C94.2624 33.3774 94.0897 33.1649 94.0283 32.9183C93.966 32.673 94.0065 32.4074 94.1516 32.1984C94.6011 31.5516 96.9581 28.3224 99.236 28.2874C100.34 28.2701 101.096 28.6513 101.647 28.9298C102.213 29.2153 102.226 29.2052 102.387 29.0847C102.56 28.9555 102.655 28.7199 102.796 28.3463C103.133 27.4546 103.642 26.1074 106.257 26.045C108.34 25.995 109.503 27.0889 110.346 27.9792C111.228 26.2194 113.635 21.7067 116.788 18.1273C118.825 15.8149 121.206 14.0015 122.843 12.8867C124.093 12.0367 124.917 11.5245 125.482 11.2318C124.861 10.0914 124.594 9.31616 124.387 8.71361C124.144 8.00658 124.01 7.61698 123.439 7.00513C121.543 4.96993 123.033 1.64461 123.313 1.24262C123.471 1.0155 123.719 0.868071 123.993 0.837973C124.504 0.781745 124.819 1.07173 125.392 1.59857C126.344 2.47472 128.326 4.29699 131.689 5.17225C134.703 5.95632 138.205 5.79251 141.294 5.64818C143.245 5.55698 145.087 5.47109 146.543 5.64596C151.303 6.21753 161.21 7.40712 169.353 14.6798C173.248 18.1574 176.649 22.5218 179.034 27.0362C179.094 27.115 179.139 27.2027 179.17 27.2952C179.748 28.4091 180.263 29.5306 180.709 30.6493C182.237 34.4855 183 38.2815 183 42.011ZM180.719 46.8734C181.965 40.2578 180.473 33.8166 177.621 28.2024C176.825 27.8132 174.161 26.6869 170.133 26.771C165.386 26.8693 163.886 27.6879 163.872 27.6963C163.451 27.9341 162.908 27.7991 162.66 27.386C162.411 26.9729 162.532 26.4425 162.941 26.1866C163.117 26.0769 164.81 25.1099 170.095 25.0001C172.717 24.9461 174.814 25.3548 176.289 25.7979C174 21.9874 171.127 18.6431 168.165 15.9978C166.628 14.6249 165.02 13.48 163.393 12.5224C162.597 12.8464 160.296 13.5761 156.434 13.1798C151.935 12.7185 149.482 12.5489 149.458 12.5472C148.967 12.514 148.602 12.0841 148.631 11.6033C148.664 11.115 149.089 10.7466 149.58 10.7807C149.605 10.7825 152.083 10.9538 156.617 11.4182C158.598 11.621 160.102 11.4992 161.138 11.3133C155.318 8.4825 149.579 7.79363 146.33 7.40359C145.022 7.24686 143.252 7.32921 141.379 7.41643C138.161 7.56695 134.515 7.7374 131.24 6.88471C127.737 5.97314 125.591 4.17745 124.449 3.14059C124.233 3.96538 124.119 5.12887 124.746 5.80092C125.573 6.68859 125.804 7.36108 126.072 8.13984C126.325 8.87609 126.64 9.79165 127.63 11.385C128.544 12.8557 129.742 12.8907 131.622 12.8261C132.866 12.7827 134.275 12.7344 135.521 13.457C137.7 14.7205 137.199 16.259 136.87 17.2764C136.691 17.8271 136.535 18.3061 136.652 18.8055C137.037 18.8525 138.114 18.5253 138.916 18.2822C140.757 17.7235 143.278 16.9589 145.823 17.3729C147.245 17.6044 148.114 18.0285 148.56 18.7081C149.08 19.5011 148.863 20.3453 148.687 21.0231C148.456 21.9144 148.477 22.0879 148.85 22.3438C150.275 23.3235 151.576 23.5971 153.377 23.9761C154.135 24.1359 154.996 24.3175 155.963 24.5751C157.475 24.9776 158.532 25.7501 159.105 26.872C159.976 28.5765 159.737 31.0314 158.35 34.5958C157.182 37.6001 156.913 40.3348 156.894 42.0995C156.894 42.1088 156.894 42.1181 156.894 42.1274C156.894 42.8969 157.255 43.5915 157.82 44.3557C162.745 49.4674 165.524 55.0966 165.776 60.644C165.825 61.7158 165.785 62.8447 165.679 63.9879C165.993 65.2341 166.962 65.9854 167.887 66.2914C169.039 66.6725 170.655 66.5468 171.738 65.0491C174.489 61.2443 176.865 57.1584 178.799 52.9042C179.383 51.6186 179.851 50.3316 180.21 49.0494C179.781 48.4841 177.695 45.868 174.097 43.4551C173.672 43.6415 171.103 44.7311 168.827 44.863C167.692 44.9285 166.233 44.9666 165.725 44.7771L166.352 43.1196C166.352 43.1196 166.331 43.1085 166.278 43.0961C166.299 43.101 166.802 43.2063 168.723 43.0948C169.918 43.0257 171.262 42.6264 172.205 42.2921C167.515 39.6003 165.844 39.2045 165.827 39.201C165.351 39.0943 165.047 38.6246 165.149 38.1509C165.25 37.6767 165.713 37.3712 166.19 37.4677C166.384 37.5067 168.232 37.9361 173.476 40.9781C177.033 43.0412 179.455 45.4394 180.719 46.8734ZM163.499 80.6999C164.516 80.2496 166.98 79.0414 169.434 76.9478C171.887 74.8559 173.675 72.4134 174.388 71.3685L171.709 68.0547C170.773 69.2682 169.25 71.2158 168.176 72.4585C165.34 75.7444 162.074 78.1112 161.936 78.2104C161.88 78.2511 161.82 78.2839 161.759 78.31C161.623 78.4123 161.443 78.5411 161.217 78.6903L163.499 80.6999ZM163.316 74.8085C164.38 73.8752 165.651 72.6657 166.826 71.3052C167.545 70.4729 168.492 69.2882 169.314 68.2394C168.661 68.2774 167.988 68.1915 167.324 67.9715C166.541 67.7125 165.861 67.2959 165.312 66.7633C164.798 69.8141 163.972 72.7459 163.316 74.8085ZM160.735 76.8574C161.181 75.6448 163.318 69.6171 163.879 64.0711C163.816 63.7253 163.787 63.3654 163.793 62.9993C163.824 61.2886 163.702 59.6527 163.425 58.1417C162.405 52.5895 159.35 48.9715 157.524 46.8101C157.202 46.4294 156.914 46.0876 156.674 45.7834C156.599 45.6874 156.524 45.59 156.449 45.4917C154.965 43.963 153.276 42.4785 151.393 41.0573C143.949 35.4392 140.389 35.7885 138.678 35.9563L138.43 35.9802C137.987 36.0196 137.186 36.2666 136.338 36.5283C134.133 37.2083 131.114 38.1393 128.886 37.2597C126.829 36.4477 126.644 34.3797 126.465 32.3804C126.337 30.9464 126.204 29.4633 125.434 28.3073C123.782 25.8303 119.533 27.0787 117.283 28.2064C116.394 28.6522 115.725 29.2016 115.135 29.6864C114.124 30.5174 113.079 31.3763 111.502 30.9831C110.495 30.7321 109.844 30.0379 109.215 29.3672C108.417 28.5163 107.727 27.7809 106.3 27.815C104.886 27.8491 104.736 28.2471 104.464 28.9687C104.281 29.4526 104.054 30.0547 103.457 30.5001C102.396 31.2935 101.498 30.8401 100.842 30.5094C100.372 30.2721 99.928 30.0481 99.2644 30.0583C98.4308 30.0707 97.0796 31.3537 96.1419 32.5092C97.2011 33.4088 99.0797 35.5122 101.184 40.1923C102.384 42.8641 102.629 44.8834 102.888 47.0213C103.293 50.3639 103.752 54.1523 108.206 61.8358C113.437 70.8612 120.086 74.6863 124.059 76.9717C124.569 77.2656 125.031 77.5313 125.431 77.7743C125.752 77.9696 126.497 78.3291 127.095 78.6173C127.529 78.8271 127.931 79.021 128.177 79.1521C131.891 81.1337 136.802 81.9754 142.79 81.6601C138.304 80.3346 131.633 77.6278 125.433 72.2699C115.041 63.2884 109.37 45.8383 109.133 45.0999C108.986 44.6324 109.244 44.1356 109.712 43.9878C110.18 43.8394 110.681 44.0967 110.83 44.5624C110.884 44.7302 116.041 60.5926 125.152 69.591C125.729 67.8471 126.886 63.7975 126.238 60.9818C125.972 59.8236 125.72 58.8226 125.497 57.9398C124.945 55.7545 124.546 54.1757 124.474 52.3176C124.473 52.3061 124.473 52.2937 124.473 52.2827C124.473 51.8094 124.849 51.4167 125.328 51.3985C125.82 51.3795 126.234 51.7598 126.252 52.2486C126.315 53.8433 126.662 55.2826 127.149 57.2128L128.813 55.4875C129.154 55.1347 129.717 55.1232 130.072 55.4614C130.426 55.801 130.438 56.3606 130.098 56.7134L127.656 59.2445C127.759 59.6673 127.866 60.1145 127.974 60.5886C128.856 64.4412 126.964 69.8668 126.577 70.9121C126.585 70.9192 126.593 70.9263 126.601 70.9333C129.928 73.8084 133.429 75.8932 136.624 77.3958C135.333 75.0352 133.667 71.1808 134.898 68.7277C135.715 67.0985 137.185 65.8588 138.607 64.659C140.162 63.3481 141.63 62.1098 142.182 60.4872C142.339 60.0241 142.845 59.7758 143.311 59.9325C143.776 60.0892 144.026 60.5908 143.868 61.0553C143.158 63.1427 141.43 64.6002 139.759 66.0098C139.151 66.5216 138.56 67.021 138.032 67.535C139.188 67.9064 141.376 68.5258 143.162 68.5457C145.705 68.5741 149.306 67.311 149.342 67.2986C149.805 67.1348 150.315 67.3752 150.479 67.8356C150.645 68.296 150.403 68.8029 149.939 68.9668C149.78 69.0234 146.005 70.3489 143.142 70.3171C140.629 70.2892 137.596 69.2736 136.796 68.9893C136.684 69.162 136.582 69.3378 136.491 69.5179C135.384 71.728 138.225 76.803 139.308 78.407C139.349 78.4676 139.382 78.5314 139.406 78.5974C144.472 80.5971 148.229 81.0833 148.294 81.0912C148.303 81.0926 148.311 81.0934 148.319 81.0948C156.376 79.8737 159.98 77.4321 160.735 76.8574ZM155.118 41.7927C155.165 39.8793 155.487 37.0498 156.689 33.9569C157.848 30.9787 158.126 28.8643 157.517 27.6742C157.178 27.0106 156.519 26.5568 155.502 26.2854C154.581 26.0401 153.781 25.8714 153.008 25.7089C151.157 25.3189 149.557 24.9824 147.839 23.8008C146.387 22.8033 146.747 21.4123 146.963 20.5818C147.055 20.2223 147.161 19.8154 147.069 19.6759C147.031 19.6188 146.781 19.3235 145.535 19.1203C143.4 18.7728 141.201 19.44 139.435 19.9761C137.796 20.4733 136.611 20.8328 135.727 20.3422C135.455 20.1908 135.097 19.888 134.942 19.3023C134.673 18.2836 134.951 17.4233 135.176 16.7318C135.489 15.7636 135.566 15.5325 134.624 14.9861C133.823 14.5217 132.784 14.5571 131.684 14.5952C129.992 14.6537 127.912 14.7258 126.42 12.7592C125.249 13.403 121.255 15.7436 118.127 19.2943C114.835 23.0309 112.319 27.9912 111.731 29.195C111.797 29.2242 111.866 29.2481 111.935 29.2654C112.583 29.427 112.971 29.1671 114 28.321C114.63 27.8035 115.414 27.1598 116.481 26.6245C119.927 24.8974 124.728 24.0452 126.917 27.328C127.937 28.8585 128.097 30.6458 128.239 32.2228C128.409 34.1269 128.554 35.2227 129.543 35.6132C131.187 36.2626 133.859 35.4383 135.811 34.8366C136.792 34.5338 137.64 34.2726 138.27 34.2159L138.503 34.1938C140.44 34.0034 144.469 33.6085 152.47 39.6459C153.397 40.3468 154.281 41.0631 155.118 41.7927Z" fill="#DFE2EB"/>
<ellipse cx="38.5" cy="140" rx="33.5" ry="7" fill="#F5F6FB"/>
<ellipse cx="149.5" cy="124" rx="33.5" ry="7" fill="#F5F6FB"/>
</svg>
